<svg xmlns="http://www.w3.org/2000/svg" xmlns:xlink="http://www.w3.org/1999/xlink" width="500" zoomAndPan="magnify" viewBox="0 0 375 374.999991" height="500" preserveAspectRatio="xMidYMid meet" version="1.0"><defs><g/></defs><g fill="#92987f" fill-opacity="1"><g transform="translate(98.024985, 291.426932)"><g><path d="M 102.109375 4.71875 C 156.78125 4.71875 189.15625 -21.046875 189.15625 -64.40625 C 189.15625 -100.859375 165.578125 -122.21875 112.171875 -134.171875 C 83.890625 -140.453125 73.53125 -147.359375 73.53125 -158.671875 C 73.53125 -169.359375 82.953125 -175.953125 97.71875 -175.953125 C 115.3125 -175.953125 125.359375 -166.84375 125.359375 -150.1875 L 185.0625 -150.1875 C 185.0625 -195.4375 150.5 -224.65625 96.453125 -224.65625 C 44.609375 -224.65625 12.5625 -198.890625 12.5625 -157.421875 C 12.5625 -120.34375 36.765625 -97.40625 86.40625 -87.984375 C 113.109375 -82.640625 126 -74.46875 126 -61.890625 C 126 -50.90625 116.5625 -44.609375 101.171875 -44.609375 C 82.953125 -44.609375 72.265625 -54.359375 72.265625 -71.328125 L 11 -71.328125 C 11 -23.875 44.9375 4.71875 102.109375 4.71875 Z M 102.109375 4.71875 "/></g></g></g></svg>